PathFileType	4	(X/Y/Z)	E:\Qualisys_Data\Carbon_Farble_Plate\Data\Amateur_Runner\S1\T2\S1T2V22_c3d.trc
DataRate	CameraRate	NumFrames	NumMarkers	Units	OrigDataRate	OrigDataStartFrame	OrigNumFrames
200.000000	200.000000	4	39	mm	200.000000	266	304
Frame#	Time	LSHO			RSHO			LICST			RICST			LASIS			LHEEL			RASIS			LTROC			RTROC			SACR			LTH1			LSK4			LTH2			LTH3			RHM5			LSK2			LTH4			RTH1			LTOE			RTH2			RTH3			RTH4			LLEP			RLEP			LSK1			LSK3			RSK1			LHM5			RSK2			LFT1			RSK3			RSK4			LLME			RLME			RTOE			RHEEL			RFT1			RFT2			LFT2			
		X1	Y1	Z1	X2	Y2	Z2	X3	Y3	Z3	X4	Y4	Z4	X5	Y5	Z5	X6	Y6	Z6	X7	Y7	Z7	X8	Y8	Z8	X9	Y9	Z9	X10	Y10	Z10	X11	Y11	Z11	X12	Y12	Z12	X13	Y13	Z13	X14	Y14	Z14	X15	Y15	Z15	X16	Y16	Z16	X17	Y17	Z17	X18	Y18	Z18	X19	Y19	Z19	X20	Y20	Z20	X21	Y21	Z21	X22	Y22	Z22	X23	Y23	Z23	X24	Y24	Z24	X25	Y25	Z25	X26	Y26	Z26	X27	Y27	Z27	X28	Y28	Z28	X29	Y29	Z29	X30	Y30	Z30	X31	Y31	Z31	X32	Y32	Z32	X33	Y33	Z33	X34	Y34	Z34	X35	Y35	Z35	X36	Y36	Z36	X37	Y37	Z37	X38	Y38	Z38	X39	Y39	Z39	

267	1.33	1889.685791015625	1481.35498046875	-622.512451171875	1837.266845703125	1494.106323242188	-294.9460144042969	1820.077758789062	1019.698486328125	-584.9860229492188	1828.153564453125	1048.631591796875	-285.1077880859375	1864.071899414062	978.8833618164062	-562.4749145507812	1367.754028320312	158.2899780273438	-447.7462463378906	1865.014404296875	1000.976989746094	-295.5048828125	1739.641967773438	908.0348510742188	-593.6529541015625	1772.033447265625	910.5718383789062	-254.6398620605469	1705.454345703125	1053.765625	-430.13623046875	1834.371826171875	735.7989501953125	-562.8104248046875	1481.940185546875	300.7768859863281	-489.1717834472656	1755.073608398438	745.2349853515625	-593.3096313476562	1811.595947265625	636.086181640625	-542.175048828125	1887.22509765625	163.6996002197266	-273.0918273925781	1543.27490234375	372.3112182617188	-532.2979125976562	1730.142211914062	651.8259887695312	-564.7628173828125	1944.139892578125	858.948974609375	-283.8599548339844	1589.420654296875	48.28744125366211	-456.8890380859375	1887.394165039062	811.3284301757812	-251.6331787109375	2008.64794921875	779.9571533203125	-284.8416442871094	1946.3779296875	731.1655883789062	-263.9776000976562	1719.278564453125	500.442626953125	-523.18359375	2055.7236328125	606.9698486328125	-302.0422058105469	1608.010131835938	317.2927856445312	-518.5744018554688	1536.4833984375	245.3128204345703	-511.4410705566406	1961.76953125	448.7394104003906	-286.1518859863281	1516.829467773438	47.94534301757812	-525.288818359375	1895.50244140625	495.3095703125	-299.4367370605469	1365.981689453125	128.0907897949219	-422.7165832519531	1906.755981445312	365.4239501953125	-298.203125	1843.110961914062	410.8619995117188	-320.4224243164062	1438.676025390625	173.321533203125	-500.97314453125	1805.23486328125	278.4921875	-298.9893188476562	1954.861328125	151.5757751464844	-343.4668579101562	1730.89990234375	270.8154296875	-346.1419067382812	1730.344116210938	236.090087890625	-375.1866760253906	1720.12890625	243.1022491455078	-321.1549072265625	1358.516845703125	127.8500747680664	-475.204833984375
268	1.335	1910.125732421875	1486.321166992188	-621.5872192382812	1854.956909179688	1497.726196289062	-294.7385559082031	1841.731201171875	1021.8251953125	-585.0447387695312	1849.110473632812	1053.03515625	-285.1968078613281	1885.354858398438	981.6734008789062	-562.883056640625	1376.255615234375	167.8121490478516	-448.6492309570312	1885.360229492188	1005.464599609375	-295.6310729980469	1760.23876953125	911.5676879882812	-593.3281860351562	1792.873779296875	915.1469116210938	-254.4465026855469	1726.611572265625	1057.35986328125	-430.8119201660156	1851.430053710938	738.201171875	-562.0112915039062	1491.217529296875	307.8522033691406	-490.6640014648438	1772.574340820312	749.103759765625	-593.1739501953125	1826.3076171875	639.1521606445312	-540.1072998046875	1929.016845703125	160.281005859375	-273.73193359375	1552.968627929688	379.2568359375	-533.4337158203125	1745.5224609375	655.995361328125	-564.3943481445312	1965.559814453125	864.0785522460938	-284.7743835449219	1592.00341796875	48.83963012695312	-458.0497741699219	1909.0439453125	816.263916015625	-252.1502075195312	2029.74560546875	784.9119873046875	-285.9743347167969	1968.2001953125	736.0333251953125	-264.4060974121094	1731.03515625	505.1676635742188	-522.6964721679688	2076.534423828125	611.5713500976562	-302.784912109375	1616.889892578125	324.2934265136719	-520.5685424804688	1545.845703125	251.9237823486328	-512.5888061523438	1989.75341796875	448.5093078613281	-286.4101257324219	1519.115478515625	49.69319534301758	-525.84228515625	1921.409912109375	491.7622985839844	-299.8510131835938	1373.7158203125	137.6835174560547	-423.1727600097656	1938.605102539062	362.4310607910156	-298.8944396972656	1872.741333007812	405.5444946289062	-321.2593078613281	1446.577392578125	180.1887969970703	-502.52587890625	1840.737548828125	270.7833557128906	-299.4212646484375	1997.0390625	151.2372589111328	-344.0749816894531	1767.045654296875	259.47314453125	-346.7633972167969	1768.60009765625	224.6853179931641	-375.9922790527344	1757.95361328125	231.1397552490234	-322.0425415039062	1365.562866210938	137.9917449951172	-475.5076599121094
269	1.34	1930.388549804688	1491.0556640625	-620.3931274414062	1872.744140625	1501.185302734375	-294.3865051269531	1863.290649414062	1024.83837890625	-584.4796142578125	1869.426635742188	1057.071655273438	-285.7696533203125	1907.108520507812	984.7651977539062	-559.527099609375	1387.5400390625	179.3799896240234	-448.83251953125	1905.725708007812	1009.440185546875	-295.8427124023438	1780.999145507812	915.10498046875	-593.2030029296875	1814.030517578125	919.774169921875	-253.8290100097656	1747.673583984375	1061.104125976562	-431.3719177246094	1868.4609375	740.6822509765625	-561.596435546875	1501.459350585938	315.0316772460938	-491.6278381347656	1790.264526367188	753.1754760742188	-592.8251342773438	1841.207885742188	642.84716796875	-539.7926635742188	1970.394409179688	156.6924743652344	-274.8014221191406	1563.795776367188	386.1551818847656	-534.5233154296875	1760.909790039062	660.3981323242188	-564.4650268554688	1986.645629882812	868.716064453125	-285.878173828125	1593.972045898438	48.43392181396484	-458.1151428222656	1930.4326171875	820.9959716796875	-252.4873809814453	2051.296142578125	789.6327514648438	-287.1787109375	1989.706665039062	740.8905639648438	-265.2214660644531	1743.015625	510.1123352050781	-522.7181396484375	2097.58984375	616.1336669921875	-303.3659973144531	1626.634887695312	328.39794921875	-521.7462768554688	1555.668212890625	258.7911376953125	-514.3480224609375	2017.499267578125	447.7674255371094	-286.8719482421875	1521.977661132812	51.51255798339844	-526.668701171875	1947.039428710938	487.9407653808594	-300.41455078125	1381.861328125	149.1129302978516	-423.7138061523438	1969.913818359375	359.3810729980469	-299.2501525878906	1902.237915039062	399.1189270019531	-321.5193786621094	1455.8271484375	186.7832489013672	-504.2662658691406	1877.071411132812	262.9423522949219	-300.7773132324219	2038.885986328125	151.6843872070312	-344.9553527832031	1803.664428710938	247.9805145263672	-347.4981079101562	1806.902099609375	213.5182647705078	-376.6735534667969	1796.066528320312	219.615966796875	-321.8060607910156	1373.592895507812	148.6211090087891	-476.4588317871094
270	1.345	1950.67822265625	1495.585693359375	-619.34912109375	1890.821411132812	1504.922241210938	-294.1584777832031	1884.857421875	1028.016357421875	-584.7092895507812	1889.856811523438	1061.366333007812	-286.09228515625	1928.44921875	987.6698608398438	-559.1932983398438	1398.675537109375	189.7741088867188	-449.8941650390625	1926.751220703125	1013.644104003906	-295.6998291015625	1801.414672851562	918.7613525390624	-593.258056640625	1834.9921875	924.231201171875	-253.6784210205078	1768.465454101562	1064.869262695312	-431.9689025878906	1885.748291015625	743.1807861328125	-561.7230224609375	1512.180419921875	321.2636413574219	-493.0198669433594	1807.776733398438	757.4788208007812	-592.9096069335938	1856.594604492188	646.536865234375	-539.4974365234375	2011.632568359375	153.9836273193359	-275.594970703125	1574.683715820312	392.3667602539062	-535.846435546875	1776.777709960938	665.7042236328125	-564.3699951171875	2007.896484375	872.9727783203125	-286.4853515625	1596.67529296875	48.40534591674805	-459.5329895019531	1951.734375	825.5446166992188	-252.9657897949219	2072.435791015625	793.8085327148438	-288.1743469238281	2010.87548828125	745.0182495117188	-265.3985900878906	1755.565551757812	515.2445068359375	-523.015869140625	2117.87646484375	619.3040771484375	-303.9797668457031	1637.77490234375	336.915771484375	-523.1806030273438	1565.617431640625	265.8302001953125	-516.7843017578125	2044.659545898438	446.5761413574219	-286.8829040527344	1524.910888671875	53.5295524597168	-527.3920288085938	1972.51513671875	483.7252197265625	-300.5849304199219	1391.29736328125	160.5861206054688	-424.56689453125	2001.390747070312	356.4160766601562	-300.0107116699219	1932.021362304688	393.3787231445312	-320.9226989746094	1466.119384765625	193.8312377929688	-506.0316772460938	1912.980712890625	255.4749755859375	-301.311767578125	2080.22314453125	152.3801116943359	-345.6606140136719	1840.871337890625	236.5532836914062	-347.7649230957031	1845.826538085938	202.2518768310547	-377.5129699707031	1834.477905273438	207.57568359375	-323.4872436523438	1382.775512695312	160.1782073974609	-477.3681030273438
